<svg width="24" height="24" viewBox="0 0 24 24" fill="none" xmlns="http://www.w3.org/2000/svg">
  <path d="M12 24C18.6275 24 24 18.6275 24 12C24 5.37258 18.6275 0 12 0C5.37258 0 0 5.37258 0 12C0 18.6275 5.37258 24 12 24Z" fill="#627EEA"/>
  <path d="M12.375 3V9.6525L17.9977 12.165L12.375 3Z" fill="white" fill-opacity="0.602"/>
  <path d="M12.3735 3L6.75 12.165L12.3735 9.6525V3Z" fill="white"/>
  <path d="M12.375 16.476V20.9963L18.0015 13.212L12.375 16.476Z" fill="white" fill-opacity="0.602"/>
  <path d="M12.3735 20.9963V16.4753L6.75 13.212L12.3735 20.9963Z" fill="white"/>
  <path d="M12.375 15.43L17.9977 12.1652L12.375 9.65424V15.43Z" fill="white" fill-opacity="0.2"/>
  <path d="M6.75 12.1652L12.3735 15.43V9.65424L6.75 12.1652Z" fill="white" fill-opacity="0.602"/>
</svg>
